<?xml version="1.0" encoding="UTF-8"?>
<svg xmlns="http://www.w3.org/2000/svg" xmlns:xlink="http://www.w3.org/1999/xlink" width="24px" height="24px" viewBox="0 0 24 24" version="1.1">
<g id="surface1">
<path style=" stroke:none;fill-rule:nonzero;fill:rgb(0%,0%,0%);fill-opacity:1;" d="M 9.785156 10.496094 C 8.0625 12.21875 7.566406 12.722656 7.539062 12.789062 C 7.511719 12.84375 7.5 12.914062 7.5 13.003906 C 7.5 13.21875 7.597656 13.378906 7.789062 13.464844 C 7.894531 13.511719 8.101562 13.511719 8.210938 13.460938 C 8.277344 13.433594 8.707031 13.011719 10.148438 11.574219 L 12 9.722656 L 13.851562 11.574219 C 15.292969 13.011719 15.722656 13.433594 15.789062 13.460938 C 15.898438 13.511719 16.105469 13.511719 16.210938 13.464844 C 16.402344 13.378906 16.5 13.21875 16.5 13.003906 C 16.5 12.914062 16.488281 12.84375 16.460938 12.789062 C 16.433594 12.722656 15.9375 12.21875 14.214844 10.496094 C 13.003906 9.28125 12.003906 8.289062 12 8.289062 C 11.996094 8.289062 10.996094 9.28125 9.785156 10.496094 Z M 9.785156 10.496094 "/>
</g>
</svg>
